<svg xmlns="http://www.w3.org/2000/svg" width="18.405" height="18.405" viewBox="0 0 18.405 18.405">
  <path id="Icon_ionic-md-exit" data-name="Icon ionic-md-exit" d="M11.76,17.384l1.431,1.431L18.3,13.7,13.191,8.59,11.76,10.021l2.659,2.659H4.5v2.045h9.867ZM20.86,4.5H6.545A2.051,2.051,0,0,0,4.5,6.545v4.09H6.545V6.545H20.86V20.86H6.545V16.77H4.5v4.09a2.051,2.051,0,0,0,2.045,2.045H20.86a2.051,2.051,0,0,0,2.045-2.045V6.545A2.051,2.051,0,0,0,20.86,4.5Z" transform="translate(-4.5 -4.5)" fill="#343c44"/>
</svg>
