<svg xmlns="http://www.w3.org/2000/svg" width="14.4" height="15.612" viewBox="0 0 14.4 15.612">
  <path id="Icon_ionic-ios-thumbs-up" data-name="Icon ionic-ios-thumbs-up" d="M18.287,16.165a1.523,1.523,0,0,0,.627-1.178,1.647,1.647,0,0,0-.409-1.092c-.023-.045-.041-.086-.06-.128l-.008-.041a.49.49,0,0,1,.075-.375,1.645,1.645,0,0,0,.218-.964,1.14,1.14,0,0,0-.364-.87.715.715,0,0,1-.154-.687A1.447,1.447,0,0,0,17.9,9.411c-.394-.443-.762-.5-1.741-.439-.675.041-2.082.259-3.009.405-.379.06-.709.113-.81.12-.476.049-.57,0-.615-.184a1.216,1.216,0,0,1,.184-.488,8.046,8.046,0,0,0,.544-1.343,4.713,4.713,0,0,0-.1-3.384,1.226,1.226,0,0,0-.987-.717,1.493,1.493,0,0,0-1.047.3c-.128.15-.086.435-.233,1.006a10.939,10.939,0,0,1-.45,1.576A10.783,10.783,0,0,1,7.5,8.526c-.154.135-.285.251-.379.341a7.734,7.734,0,0,0-.957,1.227,6.531,6.531,0,0,1-.514.694,1.355,1.355,0,0,1-.837.409.3.3,0,0,0-.3.3v5.984a.311.311,0,0,0,.311.311,5.913,5.913,0,0,1,2.491.443,6.484,6.484,0,0,0,1.741.454,36.039,36.039,0,0,0,4.225.3,18.7,18.7,0,0,0,2.124-.146c1.163-.135,2.409-.405,2.821-1.388a1.06,1.06,0,0,0-.019-.889.3.3,0,0,1-.03-.1A.318.318,0,0,1,18.287,16.165Z" transform="translate(-4.514 -3.382)" fill="#343c44"/>
</svg>
